<svg xmlns="http://www.w3.org/2000/svg" width="120" height="96" viewBox="0 0 120 96"><g fill="none" fill-rule="evenodd"><path d="M30 66.6c0 8.284-6.716 15-15 15-8.284 0-15-6.716-15-15 0-8.284 6.716-15 15-15 8.284 0 15 6.716 15 15" fill="#FFC300"/><path fill="#232323" d="M81.6 7.554l6.367 6.846H98.4L87.28 0H75.92L64.8 14.4h10.433L81.6 7.554M81.6 81.929c-13.198 0-22.996-10.948-22.996-24.329 0-13.38 9.798-24.329 22.995-24.329 13.199 0 22.997 10.948 22.997 24.33 0 13.38-9.798 24.328-22.997 24.328zm0-62.729c-22.725 0-38.4 17.173-38.4 38.4S58.875 96 81.6 96c22.724 0 38.4-17.173 38.4-38.4s-15.676-38.4-38.4-38.4z"/></g></svg>
