<svg xmlns="http://www.w3.org/2000/svg" width="557" height="86" viewBox="0 0 557 86"><g fill="none"><path fill="#FFC300" d="M546.964 47.54c-5.543 0-10.036-4.352-10.036-9.72s4.493-9.72 10.036-9.72c5.543 0 10.036 4.352 10.036 9.72s-4.493 9.72-10.036 9.72zm0 36.763c-5.543 0-10.036-4.352-10.036-9.72 0-5.367 4.493-9.719 10.036-9.719 5.543 0 10.036 4.352 10.036 9.72 0 5.367-4.493 9.719-10.036 9.719z"/><path fill="#1E1E1E" d="M495.982 27.917c15.875.432 28.317 13.366 27.888 29.32-.429 15.952-13.3 28.456-29.175 28.024-15.446-.43-27.888-12.934-27.888-28.456 0-15.953 12.871-28.456 28.317-28.888h.858zm0 43.547c7.723 0 14.159-6.467 14.588-14.228v-.862c.429-8.192-5.578-14.66-13.73-15.09-8.152-.432-14.588 5.604-15.017 13.796v1.725c-.429 7.76 5.578 14.66 13.73 15.09 0-.43 0-.43.429-.43zm-170.333 3.88c-5.578 6.468-13.73 9.917-22.31 9.917-15.017.863-27.889-10.779-28.747-26.3v-2.587c0-15.522 10.297-28.888 26.601-28.888 15.017 0 25.743 12.935 25.743 28.025 0 1.294 0 3.019-.429 4.312h-37.756c.858 7.33 7.294 13.366 14.588 12.935 5.148 0 10.297-2.587 13.73-6.468l8.58 9.055zm-13.73-25.869c-.858-5.605-5.577-9.485-10.726-9.485-5.577 0-10.726 3.88-11.584 9.485h22.31zm-166.9 34.493H130.86v-4.312c-4.29 3.45-9.439 5.605-15.016 5.605-7.723 0-15.446-3.449-20.595-9.485-4.72-5.174-6.865-12.073-6.865-19.402-.429-15.09 11.156-28.025 26.172-28.457h.43c6.006 0 11.584 1.725 15.874 5.605v-4.311h14.159v54.757zm-14.588-35.786c-3.003-4.312-8.152-6.899-13.3-6.899-7.723 0-14.159 6.468-14.159 14.66v.43c-.429 7.762 5.578 14.66 13.73 15.091h.858c5.148 0 10.297-2.587 13.3-6.898V48.182h-.429zM43.334 15.845c-1.287-.431-3.003-.431-4.29-.431-3.004-.431-6.007.862-8.152 3.018-1.717 2.587-2.575 5.605-2.146 8.623v1.725H45.48v12.503H28.746v42.685H14.16V41.283H0V28.78h14.159v-2.156c0-8.623 2.145-14.228 6.006-18.109 4.72-4.311 10.727-6.898 17.162-6.467 3.004 0 5.578.431 8.581.862l-2.574 12.935zm42.476 26.3c-1.716-.43-3.432-.43-5.149-.43-5.577 0-10.297 3.018-13.3 7.76v34.493H52.773V28.78h14.159v5.605c3.861-4.312 9.868-6.899 15.875-6.468 1.716 0 3.432 0 5.148.432L85.81 42.146zm71.651 41.823V28.78h14.16v4.311c4.29-3.449 9.867-5.605 15.445-5.605 7.294 0 14.159 3.018 18.878 9.055 4.29 5.605 6.007 12.503 5.578 19.402v28.025h-14.588V54.649c.43-3.88-.858-7.33-3.432-10.348-2.146-2.155-5.149-3.018-8.152-3.018-5.149 0-10.298 2.587-13.3 6.899v35.786h-14.59zm114.986-11.21c-5.578 8.192-15.017 12.503-24.885 12.503-15.875.432-29.175-11.64-29.604-27.594-.43-15.953 11.584-29.318 27.459-29.75h2.145c9.01 0 17.591 3.88 23.169 11.21l-10.298 9.055c-3.003-3.88-7.722-6.468-12.442-6.468-8.152 0-14.588 6.468-14.588 14.66v.431c-.429 8.192 6.007 14.66 14.159 15.09h1.287c5.149 0 9.868-3.018 12.872-7.33l10.726 8.193zM342.382.323c5.149 0 9.44 4.312 9.01 9.486 0 5.174-4.29 9.485-9.439 9.054-5.149 0-9.01-4.311-9.01-9.485 0-5.174 4.29-9.486 9.44-9.055 0-.43 0-.43 0 0zm7.294 83.645h-14.588V28.78h14.588v55.188zm12.442 0V28.78h14.159v4.311c4.29-3.449 9.868-5.605 15.446-5.605 7.294 0 14.159 3.018 18.878 9.055 4.29 5.605 6.007 12.503 5.578 19.402v28.025H401.59V54.649c.43-3.88-.858-7.33-3.432-10.348-2.146-2.155-5.149-3.018-8.152-3.018-5.149 0-9.869 2.587-13.3 6.899v35.786h-14.589zm101.256-68.123c-1.287-.431-3.003-.431-4.29-.431-3.004-.431-6.007.862-8.152 3.018-1.716 2.587-2.575 5.605-2.145 8.623v1.725h16.732v12.503h-17.162v42.685H433.77V41.283h-14.16V28.78h14.159v-2.156c0-8.623 2.145-14.228 6.006-18.109 4.72-4.311 10.727-6.898 17.162-6.467 3.004 0 5.578.431 8.581.862l-2.145 12.935z"/></g></svg>
