<svg width="133" height="95" viewBox="0 0 133 95" fill="none" xmlns="http://www.w3.org/2000/svg">
<path fill-rule="evenodd" clip-rule="evenodd" d="M76.5028 40.9247L91.1866 23.1272V14H42.0489V27.6908H68.4925L53.9576 44.6604V54.5004C56.9639 53.0172 60.4322 52.2188 63.6691 52.2188C72.6874 52.2188 79.6247 58.4931 79.6247 66.8215C79.6247 75.3775 72.1096 81.31 64.4783 81.31C58.3513 81.31 52.8009 78.0017 49.4485 73.3241L38.2334 82.5645C45.4013 90.5515 54.9977 95 65.0568 95C81.8215 95 95.2334 83.7059 95.2334 66.8215C95.2334 54.729 87.6024 45.1457 76.5028 40.9247Z" fill="#232323"/>
<circle cx="15" cy="65" r="15" fill="#0082E6"/>
</svg>
