<svg width="473" height="95" viewBox="0 0 473 95" fill="none" xmlns="http://www.w3.org/2000/svg">
<path d="M472.288 54.7832C472.288 59.3293 468.478 63.0146 463.779 63.0146C459.079 63.0146 455.269 59.3293 455.269 54.7832C455.269 50.2371 459.079 46.5518 463.779 46.5518C468.478 46.5518 472.288 50.2371 472.288 54.7832Z" fill="#FFC300"/>
<path d="M472.288 85.9191C472.288 90.4652 468.478 94.1506 463.779 94.1506C459.079 94.1506 455.269 90.4652 455.269 85.9191C455.269 81.373 459.079 77.6877 463.779 77.6877C468.478 77.6877 472.288 81.373 472.288 85.9191Z" fill="#FFC300"/>
<path d="M290.309 23.0252C294.675 23.0252 298.313 26.6768 297.949 31.0588C297.949 35.4407 294.311 39.0923 289.945 38.7271C285.58 38.7271 282.306 35.0755 282.306 30.6936C282.306 26.3117 285.944 22.6601 290.309 23.0252Z" fill="#1E1E1E"/>
<path d="M36.7436 36.1713C35.6522 35.8061 34.197 35.8061 33.1056 35.8061C30.559 35.4409 28.0124 36.5364 26.1934 38.3622C24.7382 40.5532 24.0106 43.1093 24.3744 45.6655V47.1261H38.5625V57.7158H24.3744V93.8667H12.0053V57.7158H0V47.1261H12.0053V45.3003C12.0053 37.9971 13.8243 33.25 17.0985 29.9635C21.1003 26.3119 26.1934 24.121 31.6504 24.4861C33.9104 24.4861 35.8839 24.7737 38.0795 25.0937C38.3579 25.1343 38.6398 25.1753 38.9263 25.2164L36.7436 36.1713Z" fill="#1E1E1E"/>
<path fill-rule="evenodd" clip-rule="evenodd" d="M257.205 94.9623C264.481 94.9623 271.393 92.041 276.122 86.5635L268.846 78.8952C265.936 82.1816 261.57 84.3726 257.205 84.3726C251.02 84.7377 245.563 79.6255 244.835 73.4178H276.85C277.213 72.3223 277.213 70.8616 277.213 69.7661C277.213 56.9855 268.119 46.0307 255.386 46.0307C241.561 46.0307 232.83 57.3507 232.83 70.4965V72.6874C233.558 85.8332 244.472 95.6926 257.205 94.9623ZM264.48 64.6533C263.752 59.9062 259.75 56.6197 255.385 56.6197C250.656 56.6197 246.29 59.9062 245.562 64.6533H264.48Z" fill="#1E1E1E"/>
<path fill-rule="evenodd" clip-rule="evenodd" d="M444.195 71.2259C444.559 57.7149 434.009 46.7601 420.549 46.3949H419.821C406.724 46.7601 395.81 57.3497 395.81 70.8607C395.81 84.0065 406.361 94.5962 419.457 94.9613C432.918 95.3265 443.832 84.7368 444.195 71.2259ZM432.915 71.2256C432.552 77.7985 427.095 83.2759 420.546 83.2759C420.365 83.2759 420.274 83.2759 420.228 83.3214C420.183 83.367 420.183 83.4582 420.183 83.6411C413.27 83.2759 408.177 77.4333 408.541 70.8604V69.3998C408.905 62.4617 414.362 57.3494 421.274 57.7146C428.186 58.0798 433.279 63.5572 432.915 70.4953V71.2256Z" fill="#1E1E1E"/>
<path fill-rule="evenodd" clip-rule="evenodd" d="M122.962 93.8658H110.957V90.2142C107.319 93.1355 102.954 94.9613 98.2242 94.9613C91.6758 94.9613 85.1275 92.04 80.7619 86.9278C76.7601 82.5458 74.9412 76.7033 74.9412 70.4955C74.5774 57.7149 84.3999 46.7601 97.1328 46.3949H97.4966C102.59 46.3949 107.319 47.8555 110.957 51.142V47.4904H122.962V93.8658ZM99.3153 57.7166C103.681 57.7166 108.046 59.9076 110.593 63.5592H110.957V77.4353C108.41 81.0869 104.045 83.2779 99.679 83.2779H98.9515C92.0393 82.9128 86.9461 77.0702 87.3099 70.4973V70.1321C87.3099 63.194 92.7669 57.7166 99.3153 57.7166Z" fill="#1E1E1E"/>
<path d="M68.393 58.0821C69.8482 58.0821 71.3034 58.0821 72.7586 58.4472L74.5776 46.7621C73.1224 46.3969 71.6672 46.3969 70.212 46.3969C65.1188 46.0317 60.0257 48.2227 56.7515 51.8743V47.1272H44.7462V93.8678H57.1153V64.655C59.6619 60.6382 63.6636 58.0821 68.393 58.0821Z" fill="#1E1E1E"/>
<path d="M133.515 93.8665V47.1259H145.52V50.7775C149.158 47.8562 153.888 46.0304 158.617 46.0304C164.802 46.0304 170.622 48.5866 174.624 53.6988C178.262 58.4459 179.717 64.2885 179.354 70.1311V93.8665H166.984V69.0356C167.348 65.7491 166.257 62.8278 164.074 60.2717C162.255 58.4459 159.709 57.7156 157.162 57.7156C152.796 57.7156 148.431 59.9065 145.884 63.5582V93.8665H133.515Z" fill="#1E1E1E"/>
<path d="M209.91 94.9632C218.277 94.9632 226.281 91.3116 231.01 84.3735L221.915 77.4355C219.368 81.0871 215.367 83.6432 211.001 83.6432H209.91C202.998 83.278 197.541 77.8006 197.904 70.8626V70.4974C197.904 63.5593 203.361 58.0819 210.274 58.0819C214.275 58.0819 218.277 60.2729 220.824 63.5593L229.555 55.8909C224.825 49.6832 217.549 46.3967 209.91 46.3967H208.091C194.63 46.7619 184.444 58.0819 184.808 71.5929C185.172 85.1038 196.449 95.3284 209.91 94.9632Z" fill="#1E1E1E"/>
<path d="M284.127 93.8679H296.496V47.1273H284.127V93.8679Z" fill="#1E1E1E"/>
<path d="M307.044 93.8665V47.1259H319.05V50.7775C322.688 47.8562 327.417 46.0304 332.146 46.0304C338.331 46.0304 344.152 48.5866 348.153 53.6988C351.791 58.4459 353.247 64.2885 352.883 70.1311V93.8665H340.514V69.0356C340.878 65.7491 339.786 62.8278 337.603 60.2717C335.784 58.4459 333.238 57.7156 330.691 57.7156C326.326 57.7156 322.324 59.9065 319.413 63.5582V93.8665H307.044Z" fill="#1E1E1E"/>
<path d="M389.263 35.8061C390.354 35.8061 391.809 35.8061 392.901 36.1713L394.72 25.2164C394.433 25.1753 394.151 25.1343 393.873 25.0937C391.677 24.7737 389.704 24.4861 387.444 24.4861C381.987 24.121 376.894 26.3119 372.892 29.9635C369.618 33.25 367.799 37.9971 367.799 45.3003V47.1261H355.793V57.7158H367.799V93.8667H380.168V57.7158H394.72V47.1261H380.532V45.6655C380.168 43.1093 380.896 40.5532 382.351 38.3622C384.17 36.5364 386.716 35.4409 389.263 35.8061Z" fill="#1E1E1E"/>
</svg>
