<svg width="134" height="95" viewBox="0 0 134 95" fill="none" xmlns="http://www.w3.org/2000/svg">
<path fill-rule="evenodd" clip-rule="evenodd" d="M77.4998 7.8685L83.7533 15H94L83.0781 0H71.9219L61 15H71.2467L77.4998 7.8685Z" fill="#232323"/>
<path fill-rule="evenodd" clip-rule="evenodd" d="M77.4994 81.2586C64.2681 81.2586 54.4442 70.5676 54.4442 57.5002C54.4442 44.4327 64.2681 33.7414 77.4994 33.7414C90.7319 33.7414 100.555 44.4327 100.555 57.5002C100.555 70.5676 90.7319 81.2586 77.4994 81.2586ZM77.4994 20C54.716 20 39 36.771 39 57.5002C39 78.2294 54.716 95 77.4994 95C100.283 95 116 78.2294 116 57.5002C116 36.771 100.283 20 77.4994 20Z" fill="#232323"/>
<circle cx="15" cy="65" r="15" fill="#FFC300"/>
</svg>
