<svg xmlns="http://www.w3.org/2000/svg" width="120" height="96" viewBox="0 0 120 96"><g fill="none" fill-rule="evenodd"><path d="M30 66.414c0 8.284-6.716 15-15 15-8.284 0-15-6.716-15-15 0-8.284 6.716-15 15-15 8.284 0 15 6.716 15 15" fill="#eb0031"/><path d="M65.601 26.941c6.168 0 10.59 5.32 10.59 10.988 0 4.048-1.745 8.558-8.03 15.613L39.532 83.678v11.385h54V81.184H62.906L81.43 61.176c5.47-6.246 10.269-13.532 10.269-23.247 0-14.688-11.899-24.866-26.097-24.866-12.98 0-25.69 9.257-25.144 26.33h14.667c0-1.618.08-3.053.395-4.318 1.47-5.902 6.089-8.134 10.082-8.134" fill="#232323"/></g></svg>
