<svg width="134" height="95" viewBox="0 0 134 95" fill="none" xmlns="http://www.w3.org/2000/svg">
<path fill-rule="evenodd" clip-rule="evenodd" d="M83.4196 45.5315C81.0736 43.6338 75.5291 39.1933 65.261 39.3046C61.9432 39.3405 59.4892 39.8303 58.007 40.2364L59.2345 27.6908H88.2412V14H46.9633L41.9423 56.3254L52.7089 57.4488C56.7491 54.0568 61.0768 53.1032 64.1998 53.0845C67.7412 53.063 71.1824 54.0993 73.682 56.3002C76.4991 58.7799 78.4794 62.2392 78.4794 66.8211C78.4794 75.3775 71.2276 81.31 63.8644 81.31C57.952 81.31 52.5964 78.0017 49.3616 73.3241L38.54 82.5645C45.4568 90.5511 54.7161 95 64.4227 95C80.5991 95 93.54 83.7059 93.54 66.8211C93.54 58.0354 89.6528 50.5738 83.4196 45.5315Z" fill="#232323"/>
<circle cx="15" cy="65" r="15" fill="#00D182"/>
</svg>
