<svg width="134" height="95" viewBox="0 0 134 95" fill="none" xmlns="http://www.w3.org/2000/svg">
<path fill-rule="evenodd" clip-rule="evenodd" d="M77.496 35.3638C91.9655 43.7943 96.909 62.3997 88.5736 76.9715C80.2383 91.5432 61.7274 96.5216 47.2578 88.1274L77.496 35.3638Z" fill="white"/>
<path fill-rule="evenodd" clip-rule="evenodd" d="M51.3103 86.9319C57.0328 89.516 63.41 90.0393 69.5496 88.3835C76.6044 86.4806 82.4947 81.9274 86.135 75.5623C93.1762 63.2528 89.6783 47.6689 78.4887 39.5045L51.3103 86.9319ZM62.4146 94.9999C56.7059 94.9999 51.0712 93.4954 45.9932 90.5491L43.5547 89.1341L76.5037 31.6362L78.94 33.0559C94.6552 42.2127 100.069 62.5497 91.0088 78.3896C86.6173 86.068 79.5129 91.56 71.0046 93.8547C68.1633 94.6207 65.2796 94.9999 62.4146 94.9999Z" fill="#232323"/>
<path fill-rule="evenodd" clip-rule="evenodd" d="M55.8918 72.6363C41.4336 64.2098 36.4941 45.6133 44.8228 31.0485C53.1516 16.4834 71.684 11.4714 86.1419 19.8616L55.8918 72.6363Z" fill="#99CFE2"/>
<path fill-rule="evenodd" clip-rule="evenodd" d="M70.9915 18.6615C61.5258 18.6615 52.311 23.6101 47.2582 32.4482C40.2221 44.755 43.7182 60.3355 54.9001 68.4979L82.0929 21.0469C78.5148 19.4349 74.733 18.6615 70.9915 18.6615ZM56.8823 76.3636L54.4481 74.9446C38.7441 65.7905 33.3341 45.4584 42.3879 29.622C51.4593 13.7555 71.6552 8.28622 87.4077 17.4295L89.8452 18.8442L56.8823 76.3636Z" fill="#232323"/>
</svg>
