<svg xmlns="http://www.w3.org/2000/svg" xmlns:xlink="http://www.w3.org/1999/xlink" width="20" height="20" viewBox="0 0 20 20">
    <defs>
        <path id="a" d="M3.88 3.093H5.62c.078 0 .138 0 .157.119.316 1.988.632 3.976.968 5.945v.04c-.04 0-.079.02-.099.02H5.263c-.099 0-.138-.04-.158-.14-.04-.338-.079-.696-.118-1.034-.02-.1-.04-.139-.139-.139H2.736c-.06 0-.139.06-.158.1l-.593 1.073c-.059.1-.099.14-.217.14H.504a6.375 6.375 0 0 1-.02-.56V8.56c.06-.1.139-.199.198-.298.987-1.67 1.975-3.36 2.962-5.03.06-.1.118-.14.237-.14zm.652 1.312c-.414.775-.829 1.55-1.263 2.346h1.56c-.1-.795-.178-1.57-.257-2.346h-.04zm2.804-1.352h2.943c.81 0 1.56.179 2.23.656 1.68 1.153 1.7 3.817-.137 4.95-.652.398-1.363.557-2.133.557H7.336c-.138 0-.157-.04-.157-.159V3.232c0-.12.039-.18.157-.18zm1.936 4.652c.225 0 .444.013.657.013.16 0 .316-.007.468-.033.217-.02.454-.139.652-.278.533-.378.71-1.153.493-1.83-.138-.456-.434-.755-.888-.914-.283-.103-.582-.097-.886-.091-.165.003-.33.006-.496-.008v3.141zm4.62-7.634h.06c.039.02.078.02.118.04 1.204.178 2.29.636 3.238 1.411 1.106.895 1.837 2.008 2.074 3.42.04.258.059.496.098.755v.895c-.039.259-.059.517-.098.775-.218 1.392-.948 2.505-2.014 3.4-.968.795-2.054 1.252-3.278 1.451h-.017a.282.282 0 0 1-.102-.02c.06-.04.119-.06.178-.1 1.382-.735 2.488-1.749 3.199-3.16 1.204-2.426.671-5.408-1.303-7.337A7.456 7.456 0 0 0 14.01.151c-.04-.02-.08-.06-.119-.08zm-1.797 1.51a3.816 3.816 0 0 1 1.441.199c1.265.378 2.252 1.094 2.904 2.267.236.398.355.855.414 1.312.119.855.08 1.69-.237 2.505-.375 1.014-1.106 1.73-2.034 2.247-.77.437-1.6.616-2.468.656-.02 0-.02 0-.06-.02.06-.04.1-.06.14-.08 1.125-.556 2.033-1.371 2.606-2.524a4.636 4.636 0 0 0-.85-5.21c-.533-.556-1.125-1.013-1.836-1.331l-.02-.02z"/>
    </defs>
    <g fill="none" fill-rule="evenodd" transform="translate(0 4)">
        <mask id="b" fill="#fff">
            <use xlink:href="#a"/>
        </mask>
        <g fill="#FFF" fill-rule="nonzero" mask="url(#b)">
            <rect width="20" height="20" rx=".363" transform="translate(0 -4)"/>
        </g>
    </g>
</svg>
