<svg width="32" height="32" viewBox="0 0 32 32" fill="none" xmlns="http://www.w3.org/2000/svg">
<path fill-rule="evenodd" clip-rule="evenodd" d="M23.8785 8.32189C23.6833 8.12663 23.3667 8.12663 23.1714 8.32189L16.1356 15.3577L9.12039 8.34257C8.92513 8.14731 8.60855 8.14731 8.41329 8.34257L8.34258 8.41328C8.14732 8.60854 8.14732 8.92512 8.34258 9.12039L15.3577 16.1356L8.32218 23.1711C8.12691 23.3664 8.12691 23.683 8.32218 23.8782L8.43382 23.9899C8.62909 24.1851 8.94567 24.1851 9.14093 23.9899L16.1765 16.9543L23.1918 23.9696C23.3871 24.1649 23.7037 24.1649 23.8989 23.9696L23.9696 23.8989C24.1649 23.7037 24.1649 23.3871 23.9696 23.1918L16.9543 16.1765L23.9902 9.14064C24.1854 8.94538 24.1854 8.6288 23.9902 8.43354L23.8785 8.32189Z" fill="white"/>
</svg>
