<svg xmlns="http://www.w3.org/2000/svg" xmlns:xlink="http://www.w3.org/1999/xlink" width="20" height="20" viewBox="0 0 20 20">
    <defs>
        <path id="a" d="M13.12 10.028c.715 0 1.011.734 1.011 2.221 0 1.448-.376 2.182-1.09 2.182-.676 0-1.013-.675-1.013-2.023 0-1.606.317-2.38 1.091-2.38zm-.058 6.302c2.095 0 3.342-1.647 3.342-4.52 0-2.284-.97-3.533-2.476-3.533-.502 0-1.004.234-1.54.615.207-.294.432-.638.657-1.088l1.973-3.77h-2.371l-1.263 2.524c-.884 1.834-1.732 3.37-1.732 5.48 0 2.77 1.23 4.292 3.41 4.292zm-5.251-.352V4.035H4.414v2.011h1.132v9.932h2.265zM9.967 0C15.507 0 20 4.462 20 10S15.508 20 9.967 20C4.839 20 .614 15.978.01 11.201h3.65V8.938H0C.57 4.035 4.813 0 9.967 0z"/>
    </defs>
    <g fill="none" fill-rule="evenodd">
        <mask id="b" fill="#fff">
            <use xlink:href="#a"/>
        </mask>
        <g fill="#FFF" fill-rule="nonzero" mask="url(#b)">
            <rect width="20" height="20" rx=".363"/>
        </g>
    </g>
</svg>
