<svg xmlns="http://www.w3.org/2000/svg" xmlns:xlink="http://www.w3.org/1999/xlink" width="20" height="20" viewBox="0 0 20 20">
    <defs>
        <path id="a" d="M15.845 14.064v2.123H9.748l3.032-5.885c.812-1.57 1.16-2.793 1.16-3.502 0-.776-.33-1.208-.9-1.208-.919 0-1.09.725-1.09 2.484H9.94c-.018-.173-.018-.344-.018-.5 0-2.536 1.143-3.847 3.255-3.847 1.818 0 2.979 1.155 2.979 3.036 0 1.621-.85 3.295-2.026 5.4l-1.057 1.899h2.772zm-8 2.123H5.472V5.92H4.296V3.884h3.548v12.303zM9.964 0C4.817 0 .576 3.864 0 8.841h3.532v2.394H.01C.62 16.175 4.843 20 9.965 20 15.508 20 20 15.523 20 9.999 20 4.477 15.508 0 9.965 0z"/>
    </defs>
    <g fill="none" fill-rule="evenodd">
        <mask id="b" fill="#fff">
            <use xlink:href="#a"/>
        </mask>
        <g fill="#FFF" fill-rule="nonzero" mask="url(#b)">
            <rect width="20" height="20" rx=".363"/>
        </g>
    </g>
</svg>
