<svg xmlns="http://www.w3.org/2000/svg" xmlns:xlink="http://www.w3.org/1999/xlink" width="20" height="20" viewBox="0 0 20 20">
    <defs>
        <path id="a" d="M13.032 10.41c.796 0 1.154.676 1.154 2.005 0 1.348-.358 2.002-1.154 2.002-.797 0-1.154-.674-1.154-2.062 0-1.29.378-1.944 1.154-1.944zm0-1.917c-.716 0-.955-.516-.955-1.646 0-.972.278-1.447.936-1.447.675 0 .973.494.973 1.546 0 1.051-.257 1.547-.954 1.547zm0 7.832c2.084 0 3.317-1.368 3.317-3.617 0-1.765-.695-2.907-1.91-3.235v-.104C15.428 9.126 16 8.209 16 6.756c0-1.99-1.077-3.08-2.97-3.08-1.891 0-2.968 1.09-2.968 3.08 0 1.47.572 2.37 1.562 2.613v.104c-1.215.328-1.909 1.452-1.909 3.235 0 2.25 1.233 3.617 3.316 3.617zM7.84 16.17V3.83H4.281v2.042h1.181V16.17H7.84zM9.965 0C15.508 0 20 4.477 20 10S15.508 20 9.965 20C4.841 20 .615 16.171.01 11.228H3.54V8.84H0C.576 3.864 4.817 0 9.965 0z"/>
    </defs>
    <g fill="none" fill-rule="evenodd">
        <mask id="b" fill="#fff">
            <use xlink:href="#a"/>
        </mask>
        <g fill="#FFF" fill-rule="nonzero" mask="url(#b)">
            <rect width="20" height="20" rx=".363"/>
        </g>
    </g>
</svg>
