<svg xmlns="http://www.w3.org/2000/svg" xmlns:xlink="http://www.w3.org/1999/xlink" width="20" height="20" viewBox="0 0 20 20">
    <defs>
        <path id="a" d="M13.014 5.443c-.954 0-1.15 1.512-1.15 4.615 0 3.063.196 4.556 1.15 4.556.952 0 1.127-1.513 1.127-4.556 0-3.103-.175-4.615-1.127-4.615zm-.002 10.892c-2.13 0-3.359-2.139-3.359-6.298 0-4.176 1.212-6.315 3.36-6.315 2.146 0 3.358 2.14 3.358 6.315 0 4.16-1.23 6.298-3.359 6.298zm-5.177-.155H5.462V5.913H4.285V3.877h3.55V16.18zM9.965 0C4.817 0 .577 3.864 0 8.84h3.54v2.388H.01C.615 16.17 4.84 20 9.964 20 15.508 20 20 15.523 20 10S15.508 0 9.965 0z"/>
    </defs>
    <g fill="none" fill-rule="evenodd">
        <mask id="b" fill="#fff">
            <use xlink:href="#a"/>
        </mask>
        <g fill="#FFF" fill-rule="nonzero" mask="url(#b)">
            <rect width="20" height="20" rx=".363"/>
        </g>
    </g>
</svg>
