<?xml version="1.0" encoding="UTF-8"?>
<svg width="15px" height="15px" viewBox="0 0 15 15" version="1.1" xmlns="http://www.w3.org/2000/svg" xmlns:xlink="http://www.w3.org/1999/xlink">
    <!-- Generator: sketchtool 52.5 (67469) - http://www.bohemiancoding.com/sketch -->
    <title>2387109C-EDF6-4889-B8C9-0F05A62FC710</title>
    <desc>Created with sketchtool.</desc>
    <defs>
        <path d="M3.12153724,9.13865833 C3.21024291,9.05071089 3.28589652,9 3.3717823,9 C3.43059715,9 3.49424608,9.02367115 3.5701414,9.07529248 C4.33642626,9.58303871 5.1215641,10.0699361 6,10.6409572 C5.6073908,11.0430026 5.25240698,11.423835 4.87848961,11.8047585 C3.9812813,12.7993111 3.10276483,13.8148946 2.20555653,14.8094472 C2.14956157,14.8517822 2.13078917,14.9365431 2.09348605,15 L-1.77635684e-15,15 L-1.77635684e-15,12.5666965 C0.0934591989,12.5032396 0.16814599,12.4609047 0.242913349,12.3760527 C1.21488902,11.2971033 2.16817285,10.2176987 3.12153724,9.13865833 Z M13.020055,0 L15,0 L15,1.79273367 C14.281661,2.43416335 13.5806932,3.07559303 12.8270075,3.75 C12.5118326,2.91113114 12.0737749,2.18747051 11.25,1.5788766 C11.8633562,1.03616652 12.4417434,0.509803552 13.020055,0 Z M3.81751166,5.24876492 C4.11791353,3.02874678 6.11144985,1.49991415 8.27811689,1.5 C8.74038112,1.5 9.21076904,1.56962507 9.67399414,1.7169452 C12.6935614,2.69470097 13.7881633,6.34611098 11.5991342,8.87999997 C11.1331139,9.4388034 10.585944,9.93776877 10.1604547,10.5164038 C9.71452524,11.1149562 9.34974531,11.7731749 8.98522742,12.4119055 C8.35673326,13.5093375 7.03947237,13.8286169 5.98566367,13.1302199 C5.90468881,13.0702102 5.82353925,12.9905405 5.74247704,12.9106992 C5.90468881,12.7511024 6.02619477,12.5914197 6.18831919,12.4715719 C6.2493779,12.4119055 6.41132761,12.4119055 6.47203692,12.4518262 C7.20159679,12.8706927 7.89062556,12.6912643 8.2959366,11.9726924 C9.00531827,10.6960038 9.87673701,9.53864799 10.9104549,8.50105414 C11.9842671,7.42371134 12.2883377,5.88723798 11.7006367,4.49052987 C11.1331139,3.13365657 9.7753219,2.23582797 8.2759331,2.23582797 C6.2897343,2.23582797 4.60760613,3.81213614 4.52689333,5.76747599 L4.52689333,6.42595231 L4.44548172,6.42595231 C3.65512519,5.98699671 3.69574364,6.18651418 3.81751166,5.24876492 Z M5.49509254,4.60914948 C6.08380284,3.55800863 6.98765883,3 8.14224535,3 C8.24051181,3 8.34073294,3.00401573 8.44264219,3.01213644 C9.7206393,3.11583163 10.627605,3.80029129 11.060475,5.04472283 C11.4315064,6.10246733 11.2459907,7.07730921 10.607081,7.9898626 C10.4420893,8.2387489 10.2565736,8.36323668 9.98860644,8.11435037 C9.90615501,8.03135852 9.78247787,7.9898626 9.59696216,7.90687075 C10.3596379,7.24320367 10.5863793,6.43434548 10.4009524,5.54249544 C10.2770976,4.87882837 9.8649293,4.38105575 9.28776931,4.06988094 C8.58693219,3.67580352 7.86548221,3.6965961 7.16473393,4.02838502 C6.48442081,4.36026317 6.05155082,4.94102764 5.90726083,5.7083899 C5.84542226,5.68768656 5.80419654,5.66689398 5.76297083,5.64619064 C5.14458513,5.29360914 5.12397228,5.25202397 5.49509254,4.60914948 Z" id="path-1"></path>
    </defs>
    <g id="Page-1" stroke="none" stroke-width="1" fill="none" fill-rule="evenodd">
        <g id="PagePlayer_mobileWebMobile" transform="translate(-96.000000, -407.000000)">
            <g id="csa" transform="translate(46.000000, 407.000000)">
                <g id="atom/icons/accessibility/malentendants" transform="translate(50.000000, 0.000000)">
                    <mask id="mask-2" fill="white">
                        <use xlink:href="#path-1"></use>
                    </mask>
                    <use id="Combined-Shape" fill="#FFFFFF" fill-rule="evenodd" xlink:href="#path-1"></use>
                </g>
            </g>
        </g>
    </g>
</svg>