<svg xmlns="http://www.w3.org/2000/svg" xmlns:xlink="http://www.w3.org/1999/xlink" width="20" height="20" viewBox="0 0 20 20">
    <defs>
        <path id="a" d="M15 1.354c-.07-.185-.121-.287-.115-.28.014.014-.069-.023-.23-.074H5.38c-.205.057-.316.102-.3.088.018-.018-.023.071-.08.244v16.765l4.697-3.233a1 1 0 0 1 1.168.024L15 17.998V1.353zM5.25 0h9.551c.391.11.653.23.785.36.132.13.27.402.414.818V20l-5.736-4.313L4 20V1.179c.123-.415.254-.688.394-.819C4.533.23 4.818.11 5.25 0z"/>
    </defs>
    <use fill="#F2F2F2" fill-rule="evenodd" xlink:href="#a"/>
</svg>
