<svg xmlns="http://www.w3.org/2000/svg" width="20" height="20" viewBox="0 0 20 20">
    <path fill="#F2F2F2" fill-rule="evenodd" d="M10 3.71c.333-.515.54-.822.621-.92a4.869 4.869 0 0 1 1.321-1.074A5.343 5.343 0 0 1 14.598 1c1.578 0 2.872.528 3.884 1.585S20 5.091 20 6.932c0 1.875-.61 3.665-1.83 5.37-1.19 1.67-2.679 3.17-4.465 4.5-.714.545-1.384.996-2.009 1.354-.625.358-1.071.588-1.339.69L10 19c-.833-.239-2.068-.972-3.705-2.199-1.786-1.33-3.274-2.83-4.465-4.5C.61 10.597 0 8.807 0 6.931c0-1.84.506-3.289 1.518-4.346S3.824 1 5.402 1c.922 0 1.808.239 2.656.716.514.29.954.647 1.32 1.074.082.098.289.405.622.92z"/>
</svg>
