<?xml version="1.0" encoding="UTF-8"?>
<svg width="167px" height="39px" viewBox="0 0 167 39" version="1.1" xmlns="http://www.w3.org/2000/svg" xmlns:xlink="http://www.w3.org/1999/xlink">
    <!-- Generator: Sketch 52.4 (67378) - http://www.bohemiancoding.com/sketch -->
    <title>franceinfo</title>
    <desc>Created with Sketch.</desc>
    <g id="Organisms" stroke="none" stroke-width="1" fill="white" fill-rule="evenodd">
        <g id="Organisms/header/desktop/navigation_h2/TEST" transform="translate(-720.000000, -130.000000)">
            <g id="nav" transform="translate(0.000000, 30.000000)"></g>
            <g id="Group" transform="translate(249.000000, 125.000000)">
                <g id="logos/franceinfo/complet/bichromie/blanc-jaune" transform="translate(471.000000, 0.000000)">
                    <g id="Group" transform="translate(14.632000, 14.632000)">
                        <path d="M135.647063,11.7897013 C134.272461,11.7897013 133.158126,10.7105558 133.158126,9.37936235 C133.158126,8.04816892 134.272461,6.96902342 135.647063,6.96902342 C137.021665,6.96902342 138.136,8.04816892 138.136,9.37936235 C138.136,10.7105558 137.021665,11.7897013 135.647063,11.7897013 Z M135.647063,20.9070703 C134.272461,20.9070703 133.158126,19.8279248 133.158126,18.4967313 C133.158126,17.1655379 134.272461,16.0863924 135.647063,16.0863924 C137.021665,16.0863924 138.136,17.1655379 138.136,18.4967313 C138.136,19.8279248 137.021665,20.9070703 135.647063,20.9070703 Z" id="Mask" fill="#FFC300" fill-rule="nonzero"></path>
                        <path d="M123.003548,6.92352293 C126.940512,7.03044992 130.026242,10.2382598 129.919837,14.1945586 C129.813433,18.1508574 126.621299,21.2517403 122.684334,21.1448133 C118.853774,21.0378863 115.768045,17.9370034 115.768045,14.0876316 C115.768045,10.1313328 118.960178,7.03044992 122.790739,6.92352293 C122.897143,6.92352293 122.897143,6.92352293 123.003548,6.92352293 Z M123.003548,17.7231494 C124.918828,17.7231494 126.514895,16.1192445 126.621299,14.1945586 C126.621299,14.0876316 126.621299,14.0876316 126.621299,13.9807046 C126.727703,11.9490917 125.238041,10.3451868 123.216357,10.2382598 C121.194672,10.1313328 119.598605,11.6283107 119.492201,13.6599236 C119.492201,13.7668506 119.492201,13.8737776 119.492201,14.0876316 C119.385796,16.0123175 120.875459,17.7231494 122.897143,17.8300764 C122.897143,17.7231494 122.897143,17.7231494 123.003548,17.7231494 Z M80.7609798,18.6854924 C79.3777219,20.2893973 77.3560373,21.1448133 75.2279482,21.1448133 C71.5037924,21.3586673 68.3116588,18.4716384 68.0988499,14.6222666 C68.0988499,14.4084126 68.0988499,14.1945586 68.0988499,13.9807046 C68.0988499,10.1313328 70.6525568,6.81659593 74.695926,6.81659593 C78.4200818,6.81659593 81.0801932,10.0244058 81.0801932,13.7668506 C81.0801932,14.0876316 81.0801932,14.5153396 80.9737887,14.8361206 L71.6101968,14.8361206 C71.8230057,16.6538795 73.4190725,18.1508574 75.2279482,18.0439304 C76.5048017,18.0439304 77.7816551,17.4023684 78.6328907,16.4400255 L80.7609798,18.6854924 Z M77.3560373,12.2698727 C77.1432284,10.8798217 75.9727794,9.91747879 74.695926,9.91747879 C73.3126681,9.91747879 72.0358147,10.8798217 71.8230057,12.2698727 L77.3560373,12.2698727 Z M35.9647051,20.8240323 L32.4533582,20.8240323 L32.4533582,19.7547623 C31.3893136,20.6101783 30.1124602,21.1448133 28.7292023,21.1448133 C26.8139221,21.1448133 24.898642,20.2893973 23.6217886,18.7924194 C22.4513396,17.5092954 21.9193173,15.7984635 21.9193173,13.9807046 C21.8129129,10.2382598 24.6858331,7.03044992 28.4099889,6.92352293 C28.4099889,6.92352293 28.5163934,6.92352293 28.5163934,6.92352293 C30.0060557,6.92352293 31.3893136,7.35123091 32.4533582,8.31357386 L32.4533582,7.24430391 L35.9647051,7.24430391 L35.9647051,20.8240323 Z M32.3469537,11.9490917 C31.6021225,10.8798217 30.3252691,10.2382598 29.0484157,10.2382598 C27.1331355,10.2382598 25.5370687,11.8421647 25.5370687,13.8737776 C25.5370687,13.8737776 25.5370687,13.9807046 25.5370687,13.9807046 C25.4306643,15.9053905 26.9203266,17.6162224 28.9420112,17.7231494 C29.0484157,17.7231494 29.0484157,17.7231494 29.1548201,17.7231494 C30.4316735,17.7231494 31.708527,17.0815875 32.4533582,16.0123175 L32.4533582,11.9490917 L32.3469537,11.9490917 Z M10.7468497,3.92956707 C10.4276364,3.82264007 10.0020186,3.82264007 9.68280522,3.82264007 C8.93797405,3.71571308 8.19314288,4.03649406 7.66112061,4.57112904 C7.2355028,5.21269101 7.0226939,5.96117997 7.12909835,6.70966894 L7.12909835,7.13737692 L11.278872,7.13737692 L11.278872,10.2382598 L7.12909835,10.2382598 L7.12909835,20.8240323 L3.51134695,20.8240323 L3.51134695,10.2382598 L0,10.2382598 L0,7.13737692 L3.51134695,7.13737692 L3.51134695,6.60274194 C3.51134695,4.46420204 4.04336921,3.07415111 5.00100929,2.11180815 C6.17145827,1.0425382 7.66112061,0.400976231 9.25718741,0.507903226 C10.0020186,0.507903226 10.6404453,0.614830221 11.3852765,0.721757216 L10.7468497,3.92956707 Z M21.2808906,10.4521138 C20.8552728,10.3451868 20.429655,10.3451868 20.0040372,10.3451868 C18.6207793,10.3451868 17.4503303,11.0936757 16.7054991,12.2698727 L16.7054991,20.8240323 L13.0877477,20.8240323 L13.0877477,7.13737692 L16.5990947,7.13737692 L16.5990947,8.52742785 C17.5567347,7.4581579 19.0463971,6.81659593 20.5360594,6.92352293 C20.9616772,6.92352293 21.387295,6.92352293 21.8129129,7.03044992 L21.2808906,10.4521138 Z M39.0504342,20.8240323 L39.0504342,7.13737692 L42.5617812,7.13737692 L42.5617812,8.20664687 C43.6258257,7.35123091 45.0090836,6.81659593 46.3923415,6.81659593 C48.2012172,6.81659593 49.9036884,7.5650849 51.0741374,9.06206283 C52.1381819,10.4521138 52.5637998,12.1629457 52.4573953,13.8737776 L52.4573953,20.8240323 L48.8396439,20.8240323 L48.8396439,13.5529966 C48.9460484,12.5906537 48.626835,11.7352377 47.9884083,10.9867487 C47.456386,10.4521138 46.7115548,10.2382598 45.9667237,10.2382598 C44.6898702,10.2382598 43.4130168,10.8798217 42.6681856,11.9490917 L42.6681856,20.8240323 L39.0504342,20.8240323 Z M67.5668276,18.0439304 C66.1835697,20.0755433 63.8426718,21.1448133 61.3953694,21.1448133 C57.4584046,21.2517403 54.1598666,18.2577844 54.0534621,14.3014856 C53.9470576,10.3451868 56.9263823,7.03044992 60.8633471,6.92352293 C61.076156,6.92352293 61.1825604,6.92352293 61.3953694,6.92352293 C63.6298629,6.92352293 65.7579519,7.88586588 67.1412098,9.7036248 L64.5875029,11.9490917 C63.8426718,10.9867487 62.6722228,10.3451868 61.5017738,10.3451868 C59.4800892,10.3451868 57.8840224,11.9490917 57.8840224,13.9807046 C57.8840224,13.9807046 57.8840224,14.0876316 57.8840224,14.0876316 C57.777618,16.1192445 59.3736847,17.7231494 61.3953694,17.8300764 C61.5017738,17.8300764 61.6081783,17.8300764 61.7145827,17.8300764 C62.9914361,17.8300764 64.1618851,17.0815875 64.9067163,16.0123175 L67.5668276,18.0439304 Z M84.9107535,0.0801952463 C86.1876069,0.0801952463 87.2516514,1.1494652 87.145247,2.43258914 C87.145247,3.71571308 86.0812024,4.78498303 84.804349,4.67805603 C83.5274956,4.67805603 82.5698555,3.60878608 82.5698555,2.32566214 C82.5698555,1.0425382 83.6339,-0.0267317488 84.9107535,0.0801952463 C84.9107535,-0.0267317488 84.9107535,-0.0267317488 84.9107535,0.0801952463 Z M86.7196292,20.8240323 L83.1018778,20.8240323 L83.1018778,7.13737692 L86.7196292,7.13737692 L86.7196292,20.8240323 Z M89.8053583,20.8240323 L89.8053583,7.13737692 L93.3167052,7.13737692 L93.3167052,8.20664687 C94.3807498,7.35123091 95.7640077,6.81659593 97.1472655,6.81659593 C98.9561412,6.81659593 100.658612,7.5650849 101.829061,9.06206283 C102.893106,10.4521138 103.318724,12.1629457 103.212319,13.8737776 L103.212319,20.8240323 L99.594568,20.8240323 L99.594568,13.5529966 C99.7009724,12.5906537 99.3817591,11.7352377 98.7433323,10.9867487 C98.2113101,10.4521138 97.4664789,10.2382598 96.7216477,10.2382598 C95.4447943,10.2382598 94.2743453,10.8798217 93.4231097,11.9490917 L93.4231097,20.8240323 L89.8053583,20.8240323 Z M114.916809,3.92956707 C114.597596,3.82264007 114.171978,3.82264007 113.852765,3.82264007 C113.107933,3.71571308 112.363102,4.03649406 111.83108,4.57112904 C111.405462,5.21269101 111.192653,5.96117997 111.299058,6.70966894 L111.299058,7.13737692 L115.448831,7.13737692 L115.448831,10.2382598 L111.192653,10.2382598 L111.192653,20.8240323 L107.574902,20.8240323 L107.574902,10.2382598 L104.063555,10.2382598 L104.063555,7.13737692 L107.574902,7.13737692 L107.574902,6.60274194 C107.574902,4.46420204 108.106924,3.07415111 109.064564,2.11180815 C110.235013,1.0425382 111.724676,0.400976231 113.320742,0.507903226 C114.065574,0.507903226 114.704,0.614830221 115.448831,0.721757216 L114.916809,3.92956707 Z" id="Mask" fill="#FFFFFF" fill-rule="nonzero"></path>
                    </g>
                </g>
            </g>
        </g>
    </g>
</svg>
