<svg width="17" height="12" viewBox="0 0 17 12" fill="none" xmlns="http://www.w3.org/2000/svg">
<ellipse cx="1.90299" cy="8.21017" rx="1.90299" ry="1.89474" fill="white"/>
<path fill-rule="evenodd" clip-rule="evenodd" d="M7.81493 4.95305V3.03125H5.96476V4.95305H4.18652V6.51901H5.96476V8.93914C5.96476 9.92127 6.12141 10.5334 6.47725 11.0032C6.9468 11.6295 7.75798 11.9997 8.86804 11.9997C9.22388 11.9997 9.77882 11.9428 10.0208 11.8574L9.73617 10.2914C9.60805 10.3199 9.25231 10.3627 8.98195 10.3627C8.52651 10.3627 8.22763 10.2346 8.04265 10.0209C7.8861 9.83586 7.81493 9.57964 7.81493 9.15251V6.51901H10.0916L12.5455 11.8574H13.8263L17 4.95305H15.0787L13.1859 9.16683L11.2931 4.95305H7.81493Z" fill="white"/>
</svg>
