<svg xmlns="http://www.w3.org/2000/svg" xmlns:xlink="http://www.w3.org/1999/xlink" width="20" height="20" viewBox="0 0 20 20">
    <defs>
        <path id="a" d="M8.421 15.79A7.355 7.355 0 0 0 15.79 8.42a7.355 7.355 0 0 0-7.368-7.368A7.355 7.355 0 0 0 1.053 8.42 7.355 7.355 0 0 0 8.42 15.79zM14.736 14l4.436 4.69a.526.526 0 0 1-.765.723l-4.416-4.669a8.393 8.393 0 0 1-5.57 2.098A8.408 8.408 0 0 1 0 8.422 8.408 8.408 0 0 1 8.421 0a8.408 8.408 0 0 1 8.421 8.421 8.393 8.393 0 0 1-2.106 5.58z"/>
    </defs>
    <use fill="#FFF" fill-rule="evenodd" xlink:href="#a"/>
</svg>
