<?xml version="1.0" encoding="UTF-8"?>
<svg width="45px" height="39px" viewBox="0 0 45 39" version="1.1" xmlns="http://www.w3.org/2000/svg" xmlns:xlink="http://www.w3.org/1999/xlink">
    <!-- Generator: Sketch 52.4 (67378) - http://www.bohemiancoding.com/sketch -->
    <title>slash</title>
    <desc>Created with Sketch.</desc>
    <defs>
        <polygon id="path-1" points="0 0 450 0 450 39.25 0 39.25"></polygon>
    </defs>
    <g id="Organisms" stroke="none" stroke-width="1" fill="none" fill-rule="evenodd">
        <g id="Organisms/header/desktop/navigation_h2/TEST" transform="translate(-624.000000, -130.000000)">
            <g id="nav" transform="translate(0.000000, 30.000000)"></g>
            <g id="Group" transform="translate(249.000000, 125.000000)">
                <g id="general/logos/bug/ferre-gauche/centre/bichromie/blanc/france2-3" transform="translate(0.000000, 5.000000)">
                    <mask id="mask-2" fill="white">
                        <use xlink:href="#path-1"></use>
                    </mask>
                    <g id="Duplicate-control"></g>
                    <g id="atom/logos/bug/center/middle/trichromate/black/slash" mask="url(#mask-2)">
                        <g transform="translate(375.000000, 0.000000)" id="logos/slash/bug/trichromie/noir-bleu-blanc">
                            <g transform="translate(7.250000, 0.993631)">
                                <g id="Group" transform="translate(7.560976, 7.400000)">
                                    <path d="M3.68196141,20.0157137 C5.26490614,20.7153089 7.02899474,20.8569929 8.7273304,20.4087029 C10.6788298,19.8935419 12.3082293,18.6608424 13.3152141,16.9375928 C15.2629335,13.605029 14.2953407,9.3859845 11.2000785,7.17561659 L3.68196141,20.0157137 Z M6.7536481,22.2 C5.17448342,22.2 3.61581058,21.7926954 2.21112494,20.995049 L1.53658537,20.611963 L10.6509768,5.04545455 L11.3249195,5.4298152 C15.6720739,7.90884336 17.1696691,13.4147117 14.663398,17.7030784 C13.44861,19.7818616 11.4833831,21.2687098 9.12980601,21.8899621 C8.3438545,22.0973404 7.54616496,22.2 6.7536481,22.2 Z" id="Fill-8" fill="#FFFFFF"></path>
                                    <path d="M9.12613714,1.53280522 C6.50773839,1.53280522 3.95872357,2.87254533 2.56100499,5.26529549 C0.614676162,8.59714788 1.58177694,12.8152657 4.67492884,15.0250968 L12.1970226,2.17860956 C11.2072577,1.74219169 10.1611308,1.53280522 9.12613714,1.53280522 Z M5.22324088,17.1545455 L4.5498787,16.7703762 C0.205827823,14.2920481 -1.29069825,8.78751704 1.21378361,4.50009381 C3.72313627,0.204534317 9.30973619,-1.27616916 13.6672066,1.19921807 L14.3414634,1.58221102 L5.22324088,17.1545455 Z" id="Fill-3" fill="#FFFFFF"></path>
                                </g>
                            </g>
                        </g>
                    </g>
                </g>
            </g>
        </g>
    </g>
</svg>
