<svg xmlns="http://www.w3.org/2000/svg" width="20" height="20" viewBox="0 0 20 20">
    <path fill="#F2F2F2" fill-rule="evenodd" d="M20 3.893a8.228 8.228 0 0 1-2.357.636 4.052 4.052 0 0 0 1.804-2.233 8.299 8.299 0 0 1-2.605.98A4.132 4.132 0 0 0 13.847 2C11.58 2 9.743 3.808 9.743 6.04c0 .317.038.624.106.92a11.71 11.71 0 0 1-8.456-4.22 3.963 3.963 0 0 0-.556 2.03c0 1.402.724 2.638 1.825 3.363a4.135 4.135 0 0 1-1.858-.506v.05c0 1.958 1.412 3.59 3.292 3.962a4.223 4.223 0 0 1-1.855.07c.522 1.605 2.038 2.771 3.834 2.804a8.313 8.313 0 0 1-5.097 1.728c-.331 0-.656-.017-.978-.056A11.74 11.74 0 0 0 6.29 18c7.547 0 11.675-6.156 11.675-11.492 0-.176-.004-.35-.012-.523A8.29 8.29 0 0 0 20 3.893"/>
</svg>
