<?xml version="1.0" encoding="UTF-8"?>
<svg width="20px" height="20px" viewBox="0 0 20 20" version="1.1" xmlns="http://www.w3.org/2000/svg" xmlns:xlink="http://www.w3.org/1999/xlink">
    <!-- Generator: sketchtool 52.5 (67469) - http://www.bohemiancoding.com/sketch -->
    <title>16F820F0-D915-478C-AB05-562BFEA392FE</title>
    <desc>Created with sketchtool.</desc>
    <defs>
        <path d="M9.95645324,0 L10.0434305,0 C15.5152065,0.0232559492 19.9766278,4.46014221 20,9.95645324 L20,10.0435468 C19.9767441,15.5543928 15.5164856,20 10.0000581,20 C4.46921203,20 0,15.530788 0,9.99994186 C0,4.48363072 4.44560724,0.0232559492 9.95645324,0 Z M13.7776382,7.97527893 C13.5062413,8.14807063 13.2837982,8.34562992 13.1358903,8.61714312 C12.8889121,8.04934912 12.4196071,7.75295205 11.7284403,7.75295205 C11.4075082,7.75295205 11.1356461,7.82702225 10.8887842,7.95051134 C10.6418061,8.09876802 10.4442468,8.27155972 10.2963389,8.5185379 L10.2963389,7.87644114 L8.88900517,7.87644114 L8.88900517,12.5926314 L10.3457578,12.5926314 L10.3457578,9.99994186 C10.3457578,9.65424218 10.419828,9.38272897 10.5677359,9.18516968 C10.7161088,8.98761039 10.9382031,8.88888889 11.2099489,8.88888889 C11.4319269,8.88888889 11.6049512,8.96295909 11.703789,9.1109832 C11.8022779,9.25923988 11.8519294,9.48145047 11.8519294,9.80249885 L11.8519294,12.5926314 L13.308682,12.5926314 L13.308682,9.99994186 C13.308682,9.65424218 13.3828685,9.38272897 13.5306601,9.18516968 C13.679033,8.98761039 13.9010111,8.88888889 14.1729894,8.88888889 C14.3948511,8.88888889 14.5679917,8.96295909 14.6668295,9.1109832 C14.7652021,9.25923988 14.8148536,9.48145047 14.8148536,9.80249885 L14.8148536,12.5926314 L16.2717225,12.5926314 L16.2963738,12.5926314 L16.2963738,9.72842865 C16.2963738,9.03691301 16.1728847,8.5431892 15.9013715,8.22214083 C15.6295095,7.90120873 15.2346235,7.72841703 14.6914808,7.72841703 C14.3455485,7.72841703 14.0495003,7.82702225 13.7776382,7.97527893 Z M6.98748249,7.87644114 L5.75282414,10.8641329 L4.56793353,7.87644114 L3.06176199,7.87644114 L5.11119251,12.5926314 L6.34573457,12.5926314 L8.41981639,7.87644114 L6.98748249,7.87644114 Z" id="path-1"></path>
    </defs>
    <g id="Page-1" stroke="none" stroke-width="1" fill="none" fill-rule="evenodd">
        <g id="Page-player-video-titres-longs" transform="translate(-586.000000, -715.000000)">
            <g id="csa" transform="translate(586.000000, 715.000000)">
                <g id="atom/icons/accessibility/vm">
                    <mask id="mask-2" fill="white">
                        <use xlink:href="#path-1"></use>
                    </mask>
                    <use id="Clip-2" fill="#FFFFFF" fill-rule="evenodd" xlink:href="#path-1"></use>
                </g>
            </g>
        </g>
    </g>
</svg>