<svg xmlns="http://www.w3.org/2000/svg" width="459" height="494" viewBox="0 0 459 494">
    <g fill="none" fill-rule="evenodd">
        <path fill="#0B174B" d="M480 147.49c-29.012-8.067-59.187-24.33-112.713-48.191C245.019 44.815 36.283 22.857 3.432 206.445c-14.196 79.252 21.982 154.092 85.931 195.87C254.302 510.081 401.386 420.572 480 322.573V147.49z"/>
        <g transform="translate(1.512 256.064)">
            <ellipse cx="119.395" cy="118.839" fill="#123FE0" rx="118.707" ry="118.62"/>
            <path fill="#2952E3" d="M162.323 15.107c.99-2.319.628-4.736-.378-7.055C110.757-11.555 52.79 6.399 21.672 51.5a120.667 120.667 0 0 0-6.675 10.877c16.917-5.537 35.717.468 53.594-1.292 4.445-.438 8.995-1.435 12.593-4.079 5.556-4.079 7.786-11.179 11.664-16.874 5.73-8.407 15.246-13.748 25.073-16.384 9.827-2.636 20.168-2.855 30.365-2.915 5.36-.03 11.966-.763 14.037-5.726zM216 49.853c-5.722 8.604-10.68 18.09-19.744 22.578-13.932 6.904-30.796-1.133-46.11 1.654-4.732.869-9.457 2.93-12.412 6.73-2.041 2.629-3.092 5.884-3.916 9.11-6.539 25.682-.386 54.06 15.337 75.406 5.428 7.365 12.095 14.201 14.846 22.91 2.752 8.71-.083 20.221-8.753 23.144-10.847 3.656-23.758-7.742-33.404-1.571-2.23 1.435-3.847 3.626-5.412 5.763l-14.967 20.546c47.185 7.193 94.094-14.545 119.081-55.182 24.988-40.638 23.197-92.276-4.546-131.088z"/>
        </g>
        <g transform="translate(16.63 110.281)">
            <path fill="#FFF3F3" d="M6.35 42.458s6.803-14.812 35.376-16.617a56.052 56.052 0 0 0 22.972-6.345c5.715-3.06 17.06-13.8 19.223-19.118l20.41 47.028s-12.443 22.608-37.237 22.51c0 0-32.315-1.474-41.469 17.176L6.35 42.458z"/>
            <path fill="#EFC5C5" d="M44.916 25.493s38.18-9.26 53.02 30.735c0 0 2.463-2.266 6.893-8.943L84.419.257S71.563 23.46 44.917 25.493z" opacity=".15"/>
            <ellipse cx="41.439" cy="52.217" fill="#232323" rx="3.795" ry="3.792"/>
            <path fill="#232323" d="M50.313 41.491l-1.353-3.618-3.485 1.307 1.391 3.618-3.349 1.254 1.104 2.946 3.349-1.254 1.708 4.532c.688 1.85 1.414 2.893 2.419 3.528 1.323.846 3.114.974 5.2.189a9.18 9.18 0 0 0 2.08-1.08l-1.64-2.75c-.441.26-.901.484-1.377.672a2.368 2.368 0 0 1-2.01 0 2.553 2.553 0 0 1-1.036-1.473l-1.912-4.925 4.293-1.601 8.383 8.309 2.411-.907 1.12-15.227-3.622 1.352-.597 9.268-6.538-6.602-6.539 2.462z"/>
            <path fill="#333" stroke="#333" stroke-linecap="round" stroke-linejoin="round" stroke-width="3.78" d="M2.638 35.222l59.414 139.174"/>
            <ellipse cx="2.857" cy="35.796" fill="#333" stroke="#333" stroke-width=".756" rx="2.283" ry="2.281"/>
        </g>
        <ellipse cx="288.454" cy="410.692" fill="#867C89" rx="4.195" ry="4.192"/>
        <ellipse cx="395.286" cy="165.86" fill="#867C89" rx="2.094" ry="2.092"/>
        <ellipse cx="42.928" cy="239.333" fill="#867C89" rx="2.094" ry="2.092"/>
        <ellipse cx="241.194" cy="303.901" fill="#867C89" rx="2.094" ry="2.092"/>
        <ellipse cx="66.648" cy="119.859" fill="#867C89" rx="2.094" ry="2.092"/>
        <ellipse cx="217.731" cy="159.825" fill="#FFAA7C" rx="2.464" ry="2.462"/>
        <ellipse cx="188.137" cy="240.647" fill="#FFAA7C" rx="2.464" ry="2.462"/>
        <ellipse cx="340.868" cy="124.996" fill="#FFAA7C" rx="2.464" ry="2.462"/>
        <ellipse cx="155.293" cy="192.124" fill="#FFAA7C" rx="1.247" ry="1.246"/>
        <ellipse cx="261.128" cy="132.156" fill="#FFAA7C" rx="1.247" ry="1.246"/>
        <ellipse cx="434.479" cy="258.066" fill="#FFAA7C" rx="1.247" ry="1.246"/>
        <ellipse cx="388.634" cy="359.585" fill="#FFAA7C" rx="1.247" ry="1.246"/>
        <ellipse cx="144.733" cy="118.756" fill="#FFC88C" rx="5.964" ry="5.96"/>
        <ellipse cx="144.794" cy="118.636" fill="#FFC88C" rx="5.964" ry="5.96"/>
        <ellipse cx="248.398" cy="262.658" fill="#FFC88C" rx="3.402" ry="3.399"/>
        <ellipse cx="450.391" cy="188.37" fill="#FFC88C" rx="3.402" ry="3.399"/>
        <ellipse cx="309.128" cy="362.184" fill="#FFC88C" rx="2.487" ry="2.485"/>
        <ellipse cx="95.962" cy="228.109" fill="#FFC88C" rx="4.407" ry="4.404"/>
        <ellipse cx="205.81" cy="116.868" fill="#EE5557" rx="16.524" ry="16.512"/>
        <path stroke="#FFF" stroke-width="1.512" d="M189.286 116.868s-6.757-1.186-5.918 3.694c1.232 7.145 46.609 3.452 45.868-5.915-.348-4.449-7.446-1.51-7.446-1.51"/>
        <path fill="#FFF" d="M343.098 300.373s21.513 23.416 34.394 22.434c12.88-.982 36.744-11.602 36.744-11.602l-14.007-17.607s-15.82 4.977-21.959 4.532c-4.444-2.153-9.146-19.64-16.055-30.66-6.91-11.02-15.383-12.75-15.383-12.75l-29.352 16.693 25.618 28.96z"/>
        <path fill="#B3B3B3" d="M412.029 285.493l1.49-1.556-1.49 1.578 2.767 2.591-.008.015 2.752 2.629 1.489-1.556-1.49 1.571 2.767 2.598-.007.008L423.05 296l1.49-1.556-1.49 1.578 2.767 2.599-.008.007 2.752 2.629 1.489-1.556-1.49 1.579 2.767 2.598-.007.008 4.475 4.653.287-2.901.28-2.9-2.064-1.972-1.482 1.548-.695-.65 1.482-1.57-2.08-1.957-1.473 1.564-.688-.657 1.489-1.564-2.064-1.971-1.481 1.548-.696-.65 1.482-1.57-2.079-1.957-1.474 1.564-.688-.658 1.49-1.563-2.064-1.972-1.482 1.549-.688-.65 1.474-1.57-2.078-1.95-1.474 1.556-.688-.657 1.489-1.563-2.064-1.972-1.481 1.556-.696-.657 1.482-1.571-2.079-1.949-1.474 1.556-.688-.657 1.497-1.564-2.071-1.964-3.636 2.818z"/>
        <path fill="#FFF" d="M418.016 311.537s4.27 5.34 9.524 5.288c5.254-.053 11.036-7.191 7.227-10.832-3.81-3.64-25.33-24.073-25.33-24.073s-6.471 1.428-9.661 7.229a10.75 10.75 0 0 0-1.232 5.891l.189 2.893 14.165 13.514 5.118.09z"/>
        <path fill="#CCC" d="M414.236 311.364s2.752-1.028-.62-9.646a20.701 20.701 0 0 1 3.13 9.744l-2.51-.098zM397.606 294.338c4.12 1.692 7.416 4.895 8.383 9.638 0 0 .552-6.798-7.423-10.03l-.96.392z"/>
        <path fill="#FFF" d="M302.302 194.88c2.04 8.31 8.315 46.59 10.582 61.418.575 3.777 5.715 6.76 5.881 6.738 8.149-1.05 38.786-9.064 39.307-11.292.046-.22 3.175-4.533 2.268-8.415-4.762-20.478-16.063-49.899-29.994-55.541l-28.044 7.093z"/>
        <path fill="#FFF" d="M337.421 177.07a34.208 34.208 0 0 0 .756-13.944l-.053.075c-2.162-13.694-14.264-21.905-29.48-21.112-15.617.846-25.15 13.642-24.348 28.492.544 10.016 5.753 17.668 14.544 21.837a12.282 12.282 0 0 0-.938 3.868c3.78 1.306 12.443.936 16.358.453a34.68 34.68 0 0 0 17.84-7.463 4.53 4.53 0 0 0 1.572-3.89 8.612 8.612 0 0 1-.068-1.813 10.491 10.491 0 0 0 3.742-.612 1.98 1.98 0 0 0 .755-3.21 2.77 2.77 0 0 1-.68-2.681z"/>
        <path fill="#123FE0" d="M320.587 167.937c-2.872-4.743-10.288-12.946-28.566-17.879a3.267 3.267 0 0 0-3.227.899 26.917 26.917 0 0 0-7.378 19.926c.62 10.5 5.36 17.147 11.165 20.236a11.8 11.8 0 0 0 9.963.514c2.834-1.148 6.259-3.233 8.073-6.95 2.842-5.808 4.596-10.363 8.655-12.229a3.166 3.166 0 0 0 1.315-4.517z"/>
        <path fill="#FFF" d="M255.315 200.924l-3.863-4.608s1.648-5.612 1.512-8.437a5.586 5.586 0 0 0-.446-2.402c-.688-1.292-2.963-3.483-4.536-4.533a1.512 1.512 0 0 0-1.511 1.013c-.098.749.133 1.504.635 2.07l1.285 1.51v1.413l-3.41-4.412-1.965-2.032a3.094 3.094 0 0 0-2.57 0 1.511 1.511 0 0 0-.756 2.017c.188.418.4.824.635 1.216l-.945-1.223a1.172 1.172 0 0 0-1.224-.416 2.684 2.684 0 0 0-1.512.975c-.233.405-.253.899-.053 1.321.12.363.264.68.264.68a10.276 10.276 0 0 0-.907-.914 1.717 1.717 0 0 0-1.86 2.312c.197.302.832 1.012.757 1.027-.076.015-.514-.559-.59-.521-.436.196-.794.53-1.02.951-.454 1.013 1.655 5.786 3.356 8.007a10.708 10.708 0 0 0 3.401 3.316l1.792.922 4.838 5.484 8.693-4.736z"/>
        <path fill="#EE5557" d="M249.154 210.743l-3.734-5.015a.921.921 0 0 1 .12-1.08l7.439-6.572a.84.84 0 0 1 1.187-.045l4.104 5.287-4.444 5.287-4.672 2.138z"/>
        <path fill="#FFF" d="M248.08 209.603s-1.224 5.393 1.762 8.407c2.986 3.013 24.514 22.91 31.423 22.66 6.909-.25 35.588-18.884 35.588-18.884l-4.694-24.926s-27.939 16.353-30.206 20.092c0 0-12.488-9.064-17.205-12.84-1.443-1.164-4.596-4.352-7.46-2.41-2.865 1.94-9.207 7.9-9.207 7.9z"/>
        <path fill="#CCC" d="M332.659 188.694a37.053 37.053 0 0 1-18.43 8.045c-3.915.483-12.608.853-16.357-.453l3.78 1.306s4.648 1.715 12.903.718c11.437-1.375 20.115-8.022 20.115-8.022l-2.011-1.594z"/>
        <path fill="#FFF" d="M336.733 263.21s-12.948-3.664-26.963-6.202c-15.912-2.885-20.72-2.976-20.72-2.976a25.784 25.784 0 0 0-16.44 7.735s-9.336 9.948-3.825 28.477l6.32 22.66 1.715 1.285a9.409 9.409 0 0 0 8.156 1.548l5.715-1.586a9.384 9.384 0 0 0 6.682-7.055l.295-1.375-6.75-25.591s15.602 12.365 46.352 10c0 0 16.955-3.15 17.484-22.063M387.689 243.73l2.797 5.075-1.656 4.238a31.702 31.702 0 0 0-.295 5.212 12.796 12.796 0 0 0 2.79 3.875s1.738 1.163 2.419.317c.34-.43-.136-1.45-.439-1.805l-1.459-2.463.756-.929 2.548 4.842 1.564 2.122a2.934 2.934 0 0 0 3.946-.853c.295 0 2.049.227 2.676-1.375.106.038-.514-.936-.514-.936s.816.626.9.657a1.596 1.596 0 0 0 2.003-1.911c-.144-.31-.083-.34 0-.348.083-.007.408.582.484.56.418-.121.794-.36 1.08-.688.514-.574.416-2.047.295-2.81-.484-3.097-2.494-6.534-2.902-6.798l-4.21-3.724-3.94-5.484-8.843 3.225z"/>
        <path fill="#EE5557" d="M394.885 236.274l2.88 4.993a.86.86 0 0 1-.227.982l-7.506 5.212a.756.756 0 0 1-1.088-.09l-3.19-5.288 4.633-4.366 4.498-1.443z"/>
        <path fill="#FFF" d="M397.327 235.859c.113-3.906-12.768-25.078-17.333-29.504-4.566-4.427-35.225-11.7-35.225-11.7l-13.607 18.966s28.672 8.196 32.61 7.327c0 0 9.358 8.928 13.085 14.518.945 1.42 3.983 7.999 7.098 8.671 3.114.672 13.266-4.373 13.372-8.278z"/>
        <path fill="#B3B3B3" d="M299.323 324.915l.613 2.062-.628-2.07-3.636 1.11v-.022l-3.65 1.087.612 2.062-.635-2.077-3.629 1.11v-.014l-3.65 1.08.604 2.062-.627-2.07-3.629 1.103-.007-.015-3.651 1.08.612 2.062-.627-2.07-3.629 1.11-.007-.014-6.267 1.563 2.381 1.692 2.374 1.692 2.744-.816-.612-2.054.914-.272.62 2.062 2.736-.838-.62-2.047.908-.272.612 2.07 2.744-.809-.612-2.054.914-.28.628 2.07 2.728-.839-.62-2.047.915-.272.613 2.07 2.736-.808-.612-2.055.914-.28.628 2.063 2.729-.83-.62-2.056.914-.264.613 2.07 2.736-.816-.605-2.055.907-.271.628 2.062 2.736-.831-.627-2.055.914-.272.613 2.07 2.736-.808-.635-4.555z"/>
        <path fill="#FFF" d="M273.729 317.157s-6.758 1.05-9.328 5.627c-2.57 4.578.756 13.151 5.813 11.656 5.057-1.496 33.494-9.986 33.494-9.986s1.98-6.33-1.467-11.973a10.777 10.777 0 0 0-4.535-3.995l-2.608-1.277-18.777 5.56-2.592 4.388z"/>
        <path fill="#CCC" d="M297.366 307.066c-.756 3.406-4 6.677-8.731 8.248-4.732 1.571-9.487.597-11.815-1.156 0 0 3.78 4.442 12.095 2.078 8.315-2.365 8.45-9.17 8.45-9.17zM353.71 269.162c-3.597 13.272-15.684 17.668-15.684 17.668a25.57 25.57 0 0 0 13.568-9.994c1.573-3.021 2.63-9.57 2.117-7.674z"/>
        <path fill="#D92438" d="M315.606 195.35l15.738 1.041 8.874 16.225 6.743 61.992s-5.874-.891-12.42-2.402a8.863 8.863 0 0 1-6.803-7.455l-7.234-45.805c-.416-3.618-2.434-2.334-2.774-5.287l-2.124-18.31z"/>
        <path fill="#EE5557" d="M332.062 196.973l41.65-19.156a.46.46 0 0 0-.196-.876l-10.303.355c-6.448.348-8.708.204-14.529 3.022l-33.139 15.243 16.267 1.51.25-.098z"/>
        <path fill="#EA4455" d="M373.727 176.896c-14.566 7.742-42.61 19.934-42.565 20.289.28 2.417.809 10.416 1.512 13.906.522 2.575 1.928 1.51 2.185 3.708 1.599 18.74 4.305 37.37 8.103 55.79 0 0 .756 3.694 3.984 4.02 3.099.309 30.697-16.77 33.645-17.774 2.948-1.005 3.023-3.513 3.023-3.513-3.68-32.193-8.314-52.49-8.715-56.243-.28-2.44 1.64-1.866 1.232-5.393-.204-1.564-1.912-15.055-2.404-14.79z"/>
        <path fill="#D92438" d="M317.919 202.374s-8.277-3.943-16.366.755c0 0 5.851-7.614 16.759-3.943l-.393 3.188z"/>
        <path fill="#A40B21" d="M364.278 252.16c-3.567.407-6.886-2.94-7.415-7.479-.53-4.54 1.943-8.55 5.51-8.958l2.472-.182 1.905 16.437-2.472.181z"/>
        <ellipse cx="365.803" cy="243.75" fill="#D92438" rx="6.508" ry="8.271" transform="rotate(-6.59 365.803 243.75)"/>
        <ellipse cx="365.803" cy="243.75" fill="#001963" rx="4.414" ry="5.612" transform="rotate(-6.59 365.803 243.75)"/>
        <path fill="#123FE0" d="M366.675 244.568a157.577 157.577 0 0 0 37.795-13.25c10.34-5.211 20.41-11.798 27.575-21.028 6.698-8.611 10.916-19.768 9.404-30.81-1.512-11.044-8.315-20.562-16.267-28.092-17.386-16.392-46.148-27.193-49.444-54-3.78-30.736 34.295-34.596 54.055-44.868 9.827-5.122 19.283-13.672 20.651-25.282A27.422 27.422 0 0 0 436.37.295c-1.285-.688-2.434 1.269-1.141 1.956 9.69 5.197 15.292 16.965 12.412 27.736-3.175 12.033-14.877 19.285-25.701 23.613-18.142 7.244-45.135 12.554-48.378 36.007-3.198 22.948 17.386 38.84 33.804 50.609 9.623 6.889 19.457 14.087 25.958 24.171 6.939 10.787 8.02 23.416 2.668 35.154-5.654 12.38-16.63 21.09-28.278 27.525a152.325 152.325 0 0 1-41.575 15.326c-1.429.31-.824 2.493.605 2.183l-.068-.007z"/>
        <path fill="#EA4455" d="M305.62 228.758s6.766 13.733 21.166 19.579l-.673-3.943s-8.814-2.032-18.898-16.618l-1.595.982z"/>
    </g>
</svg>
