<svg width="69" height="62" viewBox="0 0 69 62" xmlns="http://www.w3.org/2000/svg"><defs><linearGradient x1="0%" y1="42.419%" x2="116.584%" y2="42.419%" id="b"><stop stop-color="#6816CE" offset="0%"/><stop stop-color="#2A6DF8" offset="100%"/></linearGradient><linearGradient x1="0%" y1="42.419%" y2="42.419%" id="a"><stop stop-color="#6816CE" offset="0%"/><stop stop-color="#2A6DF8" offset="100%"/></linearGradient></defs><path d="M37 43.121h-6.793L13.131 59l.77-15.879H5.5c-2.485 0-4.5-2.025-4.5-4.523V5.524C1 3.025 3.015 1 5.5 1h48C55.985 1 58 3.025 58 5.524v22.552h7.357A2.65 2.65 0 0 1 68 30.733v16.663a2.65 2.65 0 0 1-2.643 2.656H61.1l.429 8.811-9.498-8.81H39.643A2.65 2.65 0 0 1 37 47.395V43.12zm1 0v4.275c0 .912.736 1.651 1.643 1.651h12.779l7.989 7.411-.36-7.41h5.306c.907 0 1.643-.74 1.643-1.652V30.733c0-.912-.736-1.651-1.643-1.651H58v9.516c0 2.498-2.015 4.523-4.5 4.523H38zm-8.184-1.005H53.5a3.51 3.51 0 0 0 3.5-3.518V5.524a3.51 3.51 0 0 0-3.5-3.519h-48A3.51 3.51 0 0 0 2 5.524v33.074a3.51 3.51 0 0 0 3.5 3.518h9.45L14.25 56.59l15.567-14.475z" stroke="url(#a)" stroke-width="1.5" fill="url(#b)" fill-rule="nonzero"/></svg>