<?xml version="1.0" encoding="UTF-8"?>
<svg width="476px" height="82px" viewBox="0 0 476 82" version="1.1" xmlns="http://www.w3.org/2000/svg" xmlns:xlink="http://www.w3.org/1999/xlink">
    <!-- Generator: Sketch 48.2 (47327) - http://www.bohemiancoding.com/sketch -->
    <title>LOGO</title>
    <desc>Created with Sketch.</desc>
    <defs></defs>
    <g id="logos/francetv/france.tv/blanc" stroke="none" stroke-width="1" fill="none" fill-rule="evenodd" transform="translate(-100.000000, -62.000000)">
        <g id="LOGO" transform="translate(100.000000, 62.000000)" fill="#FFFFFF">
            <path d="M155.632887,81.001912 L155.632887,26.6047419 L169.616613,26.6047419 L169.616613,30.9789505 C173.756162,27.6152157 178.902101,25.4837476 184.942692,25.4837476 C192.438875,25.4837476 199.262381,28.8489861 203.737144,34.2314128 C207.317253,38.494349 209.330784,43.9895518 209.330784,53.2980901 L209.330784,81.001912 L194.787619,81.001912 L194.787619,52.1770958 C194.787619,46.7939172 193.557003,43.9895518 191.543473,41.9708598 C189.64168,40.0649439 186.732747,38.942446 183.376863,38.942446 C177.223784,38.942446 172.190332,42.8685575 170.176052,45.6729229 L170.176052,81.001912 L155.632887,81.001912 Z" id="Fill-1"></path>
            <path d="M312.810405,46.7143003 C312.363926,41.9092624 308.012807,37.2165792 302.100132,37.2165792 C296.075276,37.2165792 291.166993,41.7976566 290.4969,46.7143003 L312.810405,46.7143003 Z M326.310241,72.1911133 C321.066163,78.4485236 312.475359,81.9120459 304.108168,81.9120459 C287.930951,81.9120459 275.770554,70.7379919 275.770554,53.7536996 C275.770554,38.6689515 286.034348,25.4837476 302.100132,25.4837476 C317.049343,25.4837476 327.648184,38.1101739 327.648184,53.194173 C327.648184,54.6480434 327.536751,56.1004157 327.313885,57.3295766 L289.827554,57.3295766 C290.608333,64.9277535 296.745369,70.1799634 304.443215,70.1799634 C310.578756,70.1799634 315.487787,66.714943 318.053735,63.9218041 L326.310241,72.1911133 Z" id="Fill-3"></path>
            <path d="M129.275177,45.5972271 C126.258077,41.5742316 121.453788,38.892734 115.866761,38.892734 C107.374241,38.892734 101.898819,45.9320398 101.898819,53.7540734 C101.898819,62.2464813 108.044624,68.5038086 116.201579,68.5038086 C121.676251,68.5038086 126.482038,65.8223109 129.275177,61.7993154 L129.275177,45.5972271 Z M143.801147,80.7952545 L129.833954,80.7952545 L129.833954,76.4366973 C125.363734,80.2364844 120.223878,81.9120459 114.749206,81.9120459 C106.703857,81.9120459 99.1056805,78.3369653 94.2998935,72.7492635 C90.0536332,67.8334341 87.3728489,61.128941 87.3728489,53.7540734 C87.3728489,37.7751936 99.2165372,25.4837476 113.967217,25.4837476 C120.113022,25.4837476 125.587694,27.4956199 129.833954,30.9598452 L129.833954,26.601288 L143.801147,26.601288 L143.801147,80.7952545 Z" id="Fill-5"></path>
            <path d="M272.130019,69.7327915 C265.753553,78.2245631 257.698044,81.9120459 247.518796,81.9120459 C230.738109,81.9120459 218.432122,69.3972253 218.432122,53.7536996 C218.432122,37.9985682 231.073318,25.4837476 247.629782,25.4837476 C257.026876,25.4837476 265.416845,29.8408646 270.451726,36.3229844 L260.159991,45.3735337 C257.251099,41.5744452 252.888135,38.8921629 247.629782,38.8921629 C239.239814,38.8921629 232.975084,45.4851394 232.975084,53.7536996 C232.975084,62.2462203 239.128077,68.5036306 247.965741,68.5036306 C253.894512,68.5036306 258.593434,64.9277535 260.942895,61.3526256 L272.130019,69.7327915 Z" id="Fill-7"></path>
            <path d="M84.7890261,39.503319 C83.7846631,39.1672463 81.6660031,38.942446 79.5458475,38.942446 C73.1868762,38.942446 68.166557,43.540703 66.3814382,46.7931654 L66.3814382,81.001912 L51.8776291,81.001912 L51.8776291,26.6047419 L65.8242897,26.6047419 L65.8242897,32.1006966 C69.0587424,28.0633127 74.9719949,25.4837476 81.5538256,25.4837476 C83.6739813,25.4837476 84.9004558,25.7070443 86.4627151,25.9318446 L84.7890261,39.503319 Z" id="Fill-9"></path>
            <path d="M43.2598294,13.5008214 C42.0237912,13.1637157 40.225849,12.9374702 38.8775807,12.9374702 C35.2816964,12.9374702 32.4729296,13.9510499 30.6749874,16.0883155 C29.4389492,17.662984 28.6525849,19.6878809 28.6525849,24.7512546 L28.6525849,26.4382917 L45.5066922,26.4382917 L45.5066922,38.8131648 L28.6525849,38.8131648 L28.6525849,81.001912 L14.0445872,81.001912 L14.0445872,38.8131648 L0,38.8131648 L0,26.4382917 L14.0445872,26.4382917 L14.0445872,24.1879034 C14.0445872,15.4133498 16.0677429,10.125239 19.8880876,6.41255082 C23.7084322,2.70061678 29.4389492,0 36.8551782,0 C39.7769284,0 42.473465,0.22549132 45.5066922,1.01282556 L43.2598294,13.5008214 Z" id="Fill-11"></path>
            <path d="M371.334608,53.2428298 C371.334608,61.5368338 364.611404,68.2600382 356.3174,68.2600382 C348.023396,68.2600382 341.300191,61.5368338 341.300191,53.2428298 C341.300191,44.9488258 348.023396,38.2256214 356.3174,38.2256214 C364.611404,38.2256214 371.334608,44.9488258 371.334608,53.2428298" id="Fill-13"></path>
            <path d="M403.211848,26.1434668 L403.211848,10.9341427 L388.567942,10.9341427 L388.567942,26.1434668 L374.493363,26.1434668 L374.493363,38.5365851 L388.567942,38.5365851 L388.567942,57.6896547 C388.567942,65.4623526 389.807774,70.3070726 392.6242,74.025008 C396.340674,78.9815001 402.761069,81.9109886 411.54711,81.9109886 C414.363536,81.9109886 418.755801,81.460879 420.671424,80.7849594 L418.418283,68.3918411 C417.404219,68.6168959 414.588548,68.9559885 412.448668,68.9559885 C408.843945,68.9559885 406.478298,67.9417315 405.014209,66.2507997 C403.775133,64.786433 403.211848,62.7586742 403.211848,59.3783209 L403.211848,38.5365851 L421.231689,38.5365851 L440.653702,80.7849594 L450.791326,80.7849594 L475.910373,26.1434668 L460.703937,26.1434668 L445.722514,59.4916035 L430.741091,26.1434668 L403.211848,26.1434668 Z" id="Fill-15"></path>
        </g>
    </g>
</svg>